<svg id="Layer_1" data-name="Layer 1" xmlns="http://www.w3.org/2000/svg" width="40" height="40" viewBox="0 0 40 40"><title>RecognitionBadges_SiteVisitVerified</title><circle cx="20" cy="20" r="19.78" fill="#e3b430"/><path d="M28.33,18a1.92,1.92,0,0,0-1.92-1.92H21.58A11.06,11.06,0,0,0,22.19,13c0-1.66-1.41-3.07-2.3-3.07a2.4,2.4,0,0,0-1.39.47,0.38,0.38,0,0,0-.14.3v2.6l-2.21,4.79-0.09,0V18a0.38,0.38,0,0,0-.38-0.38H10.3a0.38,0.38,0,0,0-.38.38v9.2a0.38,0.38,0,0,0,.38.38h5.37a0.38,0.38,0,0,0,.38-0.38V26.35A5,5,0,0,0,18,26.8h7.1a1.73,1.73,0,0,0,1.73-1.73,1.7,1.7,0,0,0-.18-0.77,1.72,1.72,0,0,0,.77-2.3,1.71,1.71,0,0,0,.45-2.74A1.89,1.89,0,0,0,28.33,18Z" fill="#fff"/></svg>